<svg clip-rule="evenodd" fill-rule="evenodd" stroke-linejoin="round" stroke-miterlimit="2" viewBox="0 0 560 400" xmlns="http://www.w3.org/2000/svg"><g transform="matrix(2.11514 0 0 2.11514 99.999 149.237)"><g fill-rule="nonzero"><path d="m45.387 17.913c-1.693-1.617-3.944-2.519-6.285-2.519-2.342 0-4.593.902-6.286 2.519l-6.285 6.089 6.285 6.088c1.695 1.615 3.945 2.516 6.286 2.516 2.34 0 4.59-.901 6.285-2.516.827-.784 1.485-1.728 1.936-2.774.45-1.047.682-2.175.682-3.314 0-1.14-.232-2.267-.682-3.314-.451-1.047-1.109-1.991-1.936-2.775zm-3.152 9.156c-.86.819-2.001 1.275-3.187 1.275-1.187 0-2.328-.456-3.187-1.275l-3.185-3.086 3.185-3.077c.858-.82 1.999-1.278 3.187-1.278 1.187 0 2.328.458 3.187 1.278.417.398.749.876.976 1.406.227.529.344 1.1.344 1.676s-.117 1.146-.344 1.676-.559 1.008-.976 1.405z" fill="#a24dab"/><path d="m15.174 17.909c-1.694-1.615-3.944-2.516-6.285-2.516-2.34 0-4.591.901-6.285 2.516-.823.783-1.478 1.726-1.925 2.77-.448 1.044-.679 2.168-.679 3.304s.231 2.26.679 3.304c.447 1.044 1.102 1.987 1.925 2.77 1.693 1.617 3.944 2.52 6.285 2.52s4.592-.903 6.285-2.52l6.29-6.088zm-3.044 9.156c-.859.82-2.001 1.278-3.189 1.278s-2.331-.458-3.19-1.278c-.417-.397-.749-.875-.976-1.405-.226-.529-.343-1.099-.343-1.675s.117-1.145.343-1.675c.227-.529.559-1.007.976-1.404.859-.82 2.002-1.278 3.19-1.278s2.33.458 3.189 1.278l3.189 3.082z" fill="#008fbc"/><path d="m30.081 2.603c-.783-.822-1.726-1.477-2.77-1.925-1.044-.447-2.168-.678-3.304-.678s-2.26.231-3.304.678c-1.045.448-1.987 1.103-2.77 1.925-1.617 1.693-2.52 3.944-2.52 6.286 0 2.341.903 4.592 2.52 6.285l6.088 6.285 6.088-6.285c1.611-1.698 2.507-3.951 2.502-6.291s-.911-4.589-2.53-6.28zm-2.992 9.531-3.087 3.185-3.077-3.185c-.82-.858-1.278-2-1.278-3.187s.458-2.329 1.278-3.187c.398-.417.876-.749 1.406-.976.529-.227 1.1-.344 1.676-.344s1.146.117 1.676.344 1.008.559 1.406.976c.818.86 1.274 2.001 1.274 3.187 0 1.187-.456 2.328-1.274 3.187z" fill="#f3078c"/><path d="m30.081 32.821-6.088-6.286-6.088 6.286c-1.608 1.699-2.501 3.951-2.493 6.291.008 2.339.916 4.586 2.535 6.274.784.826 1.729 1.484 2.775 1.933 1.047.449 2.174.681 3.313.681s2.266-.232 3.313-.681 1.991-1.107 2.775-1.933c1.608-1.699 2.501-3.952 2.493-6.291s-.916-4.586-2.535-6.274zm-2.992 9.418c-.398.417-.876.749-1.406.976s-1.1.344-1.676.344-1.147-.117-1.676-.344c-.53-.227-1.008-.559-1.406-.976-.82-.859-1.278-2-1.278-3.187s.458-2.329 1.278-3.187l3.082-3.19 3.082 3.19c.818.859 1.274 2 1.274 3.187 0 1.186-.456 2.327-1.274 3.187z" fill="#00c5a6"/></g><path d="m55.414 17.618h.07c.668-.812 1.514-1.46 2.472-1.894.958-.435 2.003-.644 3.054-.611 5.531 0 8.73 4.519 8.73 8.87 0 4.135-3.442 8.866-8.898 8.866-2.501 0-4.417-1.078-5.354-2.506h-.074v7.859h-3.616v-22.635h3.616zm5.151.904c-1.084-.021-2.15.281-3.062.868s-1.629 1.432-2.059 2.428c-.43.995-.554 2.097-.355 3.163.198 1.066.71 2.049 1.469 2.824.759.774 1.732 1.305 2.794 1.525 1.062.219 2.166.118 3.17-.292s1.863-1.11 2.468-2.01.928-1.96.928-3.045c.013-1.434-.544-2.813-1.547-3.837-1.004-1.024-2.372-1.608-3.806-1.624zm10.964-2.955h3.405v1.841h.07c.261-.668.714-1.243 1.303-1.652s1.287-.633 2.004-.643c.696-.015 1.383.167 1.981.524l-1.288 3.578c-.401-.275-.869-.437-1.354-.468-.332-.003-.662.06-.97.187s-.587.315-.82.551c-.234.237-.418.519-.541.828-.122.309-.182.64-.174.972v11.128h-3.616zm17.038-.454c5.873 0 9.283 4.416 9.283 8.87s-3.41 8.866-9.283 8.866-9.268-4.417-9.268-8.866 3.39-8.87 9.268-8.87zm0 14.326c1.08 0 2.137-.32 3.034-.92.899-.601 1.598-1.454 2.011-2.452.414-.998.522-2.096.311-3.156-.211-1.059-.732-2.032-1.496-2.796-.764-.763-1.738-1.283-2.798-1.493-1.059-.21-2.157-.102-3.155.313-.998.414-1.85 1.114-2.45 2.013-.599.899-.919 1.955-.918 3.035-.016.723.114 1.441.382 2.112s.67 1.281 1.18 1.793 1.118.915 1.788 1.186c.67.27 1.389.403 2.111.389zm28.049 1.077c0 5.564-4.244 8.763-8.8 8.763-1.355-.002-2.691-.302-3.917-.878-1.225-.576-2.309-1.415-3.174-2.457l2.956-2.159c.464.62 1.061 1.128 1.746 1.489.685.362 1.441.566 2.216.6 3.685 0 5.563-2.398 5.563-4.974v-1.114c-.695.842-1.572 1.515-2.567 1.967-.994.452-2.078.672-3.17.641-4.346 0-8.172-3.278-8.172-8.589 0-5.526 4.102-8.692 8.589-8.692 2.262 0 4.069.871 5.25 2.435h.07v-1.981h3.41zm-8.43-1.526c2.922 0 5.007-2.342 5.007-5.218.022-.675-.091-1.347-.334-1.977-.241-.631-.608-1.206-1.076-1.692-.469-.487-1.03-.874-1.651-1.139s-1.29-.403-1.964-.405c-.676-.002-1.345.131-1.967.392-.623.261-1.187.645-1.659 1.128-.471.483-.842 1.056-1.088 1.685s-.363 1.301-.345 1.976c.014 2.913 2.033 5.254 5.091 5.254zm11.212-13.423h3.615v9.873c0 2.81 1.738 3.999 3.967 3.999 2.81 0 4.173-1.737 4.173-4.346v-9.526h3.616v16.308c0 5.151-4.558 7.404-7.686 7.404-3.788 0-5.494-1.405-7.128-3.278l3.058-1.874c1.148 1.115 2.295 1.775 3.859 1.775 2.403 0 4.487-1.461 4.487-4.416v-.904h-.075c-1.405 1.597-2.744 2.295-5.077 2.295-3.746 0-6.814-2.81-6.814-7.545zm17.824 0h3.621v2.122h.065c1.012-1.569 2.853-2.576 5.152-2.576 3.55 0 6.557 2.955 6.557 7.128v10.153h-3.616v-9.366c0-3.059-1.602-4.314-4-4.314-2.397 0-4.135 1.499-4.135 4.243v9.423h-3.62zm17.586 0h3.64v9.873c0 2.81 1.737 3.999 3.967 3.999 2.809 0 4.172-1.737 4.172-4.346v-9.526h3.615v16.308c0 5.151-4.556 7.404-7.685 7.404-3.789 0-5.493-1.405-7.128-3.278l3.059-1.874c1.147 1.115 2.294 1.775 3.858 1.775 2.403 0 4.487-1.461 4.487-4.416v-.904h-.07c-1.405 1.597-2.744 2.295-5.077 2.295-3.747 0-6.814-2.81-6.814-7.545z" fill="#2b2727"/></g></svg>