<svg width="2027" height="88" viewBox="0 0 2027 88" fill="none" xmlns="http://www.w3.org/2000/svg">
<rect width="2027" height="88" fill="#232323"/>
<path d="M58.12 30.12L50.04 58H45.96L39.48 35.56L32.76 58L28.72 58.04L20.92 30.12H24.8L30.88 53.76L37.6 30.12H41.68L48.08 53.68L54.2 30.12H58.12ZM65.7434 33.08V42.4H75.9034V45.4H65.7434V55H77.1034V58H62.1034V30.08H77.1034V33.08H65.7434ZM96.5713 43.64C97.5846 43.8 98.5046 44.2133 99.3313 44.88C100.185 45.5467 100.851 46.3733 101.331 47.36C101.838 48.3467 102.091 49.4 102.091 50.52C102.091 51.9333 101.731 53.2133 101.011 54.36C100.291 55.48 99.2379 56.3733 97.8513 57.04C96.4913 57.68 94.8779 58 93.0113 58H82.6113V30.12H92.6113C94.5046 30.12 96.1179 30.44 97.4513 31.08C98.7846 31.6933 99.7846 32.5333 100.451 33.6C101.118 34.6667 101.451 35.8667 101.451 37.2C101.451 38.8533 100.998 40.2267 100.091 41.32C99.2113 42.3867 98.0379 43.16 96.5713 43.64ZM86.2513 42.16H92.3713C94.0779 42.16 95.3979 41.76 96.3313 40.96C97.2646 40.16 97.7313 39.0533 97.7313 37.64C97.7313 36.2267 97.2646 35.12 96.3313 34.32C95.3979 33.52 94.0513 33.12 92.2913 33.12H86.2513V42.16ZM92.6913 55C94.5046 55 95.9179 54.5733 96.9313 53.72C97.9446 52.8667 98.4513 51.68 98.4513 50.16C98.4513 48.6133 97.9179 47.4 96.8513 46.52C95.7846 45.6133 94.3579 45.16 92.5713 45.16H86.2513V55H92.6913ZM115.983 58.28C114.143 58.28 112.489 57.96 111.023 57.32C109.583 56.6533 108.449 55.7467 107.623 54.6C106.796 53.4267 106.369 52.08 106.343 50.56H110.223C110.356 51.8667 110.889 52.9733 111.823 53.88C112.783 54.76 114.169 55.2 115.983 55.2C117.716 55.2 119.076 54.7733 120.063 53.92C121.076 53.04 121.583 51.92 121.583 50.56C121.583 49.4933 121.289 48.6267 120.703 47.96C120.116 47.2933 119.383 46.7867 118.503 46.44C117.623 46.0933 116.436 45.72 114.943 45.32C113.103 44.84 111.623 44.36 110.503 43.88C109.409 43.4 108.463 42.6533 107.663 41.64C106.889 40.6 106.503 39.2133 106.503 37.48C106.503 35.96 106.889 34.6133 107.663 33.44C108.436 32.2667 109.516 31.36 110.903 30.72C112.316 30.08 113.929 29.76 115.743 29.76C118.356 29.76 120.489 30.4133 122.143 31.72C123.823 33.0267 124.769 34.76 124.983 36.92H120.983C120.849 35.8533 120.289 34.92 119.303 34.12C118.316 33.2933 117.009 32.88 115.383 32.88C113.863 32.88 112.623 33.28 111.663 34.08C110.703 34.8533 110.223 35.9467 110.223 37.36C110.223 38.3733 110.503 39.2 111.063 39.84C111.649 40.48 112.356 40.9733 113.183 41.32C114.036 41.64 115.223 42.0133 116.743 42.44C118.583 42.9467 120.063 43.4533 121.183 43.96C122.303 44.44 123.263 45.2 124.062 46.24C124.863 47.2533 125.263 48.64 125.263 50.4C125.263 51.76 124.903 53.04 124.183 54.24C123.463 55.44 122.396 56.4133 120.983 57.16C119.569 57.9067 117.903 58.28 115.983 58.28ZM134.259 30.12V58H130.619V30.12H134.259ZM157.623 30.12V33.08H150.023V58H146.383V33.08H138.743V30.12H157.623ZM165.743 33.08V42.4H175.903V45.4H165.743V55H177.103V58H162.103V30.08H177.103V33.08H165.743ZM191.451 58.28C189.611 58.28 187.958 57.96 186.491 57.32C185.051 56.6533 183.918 55.7467 183.091 54.6C182.265 53.4267 181.838 52.08 181.811 50.56H185.691C185.825 51.8667 186.358 52.9733 187.291 53.88C188.251 54.76 189.638 55.2 191.451 55.2C193.185 55.2 194.545 54.7733 195.531 53.92C196.545 53.04 197.051 51.92 197.051 50.56C197.051 49.4933 196.758 48.6267 196.171 47.96C195.585 47.2933 194.851 46.7867 193.971 46.44C193.091 46.0933 191.905 45.72 190.411 45.32C188.571 44.84 187.091 44.36 185.971 43.88C184.878 43.4 183.931 42.6533 183.131 41.64C182.358 40.6 181.971 39.2133 181.971 37.48C181.971 35.96 182.358 34.6133 183.131 33.44C183.905 32.2667 184.985 31.36 186.371 30.72C187.785 30.08 189.398 29.76 191.211 29.76C193.825 29.76 195.958 30.4133 197.611 31.72C199.291 33.0267 200.238 34.76 200.451 36.92H196.451C196.318 35.8533 195.758 34.92 194.771 34.12C193.785 33.2933 192.478 32.88 190.851 32.88C189.331 32.88 188.091 33.28 187.131 34.08C186.171 34.8533 185.691 35.9467 185.691 37.36C185.691 38.3733 185.971 39.2 186.531 39.84C187.118 40.48 187.825 40.9733 188.651 41.32C189.505 41.64 190.691 42.0133 192.211 42.44C194.051 42.9467 195.531 43.4533 196.651 43.96C197.771 44.44 198.731 45.2 199.531 46.24C200.331 47.2533 200.731 48.64 200.731 50.4C200.731 51.76 200.371 53.04 199.651 54.24C198.931 55.44 197.865 56.4133 196.451 57.16C195.038 57.9067 193.371 58.28 191.451 58.28Z" fill="white"/>
<path d="M241.5 26.5L246.252 39.2482L259 44L246.252 48.7518L241.5 61.5L236.748 48.7518L224 44L236.748 39.2482L241.5 26.5Z" fill="#0F63F6"/>
<path d="M310.36 30.32V58H306.72V37.36L297.52 58H294.96L285.72 37.32V58H282.08V30.32H286L296.24 53.2L306.48 30.32H310.36ZM329.173 58.28C326.586 58.28 324.226 57.68 322.093 56.48C319.96 55.2533 318.266 53.56 317.013 51.4C315.786 49.2133 315.173 46.76 315.173 44.04C315.173 41.32 315.786 38.88 317.013 36.72C318.266 34.5333 319.96 32.84 322.093 31.64C324.226 30.4133 326.586 29.8 329.173 29.8C331.786 29.8 334.16 30.4133 336.293 31.64C338.426 32.84 340.106 34.52 341.333 36.68C342.56 38.84 343.173 41.2933 343.173 44.04C343.173 46.7867 342.56 49.24 341.333 51.4C340.106 53.56 338.426 55.2533 336.293 56.48C334.16 57.68 331.786 58.28 329.173 58.28ZM329.173 55.12C331.12 55.12 332.866 54.6667 334.413 53.76C335.986 52.8533 337.213 51.56 338.093 49.88C339 48.2 339.453 46.2533 339.453 44.04C339.453 41.8 339 39.8533 338.093 38.2C337.213 36.52 336 35.2267 334.453 34.32C332.906 33.4133 331.146 32.96 329.173 32.96C327.2 32.96 325.44 33.4133 323.893 34.32C322.346 35.2267 321.12 36.52 320.213 38.2C319.333 39.8533 318.893 41.8 318.893 44.04C318.893 46.2533 319.333 48.2 320.213 49.88C321.12 51.56 322.346 52.8533 323.893 53.76C325.466 54.6667 327.226 55.12 329.173 55.12ZM361.938 43.64C362.952 43.8 363.872 44.2133 364.698 44.88C365.552 45.5467 366.218 46.3733 366.698 47.36C367.205 48.3467 367.458 49.4 367.458 50.52C367.458 51.9333 367.098 53.2133 366.378 54.36C365.658 55.48 364.605 56.3733 363.218 57.04C361.858 57.68 360.245 58 358.378 58H347.978V30.12H357.978C359.872 30.12 361.485 30.44 362.818 31.08C364.152 31.6933 365.152 32.5333 365.818 33.6C366.485 34.6667 366.818 35.8667 366.818 37.2C366.818 38.8533 366.365 40.2267 365.458 41.32C364.578 42.3867 363.405 43.16 361.938 43.64ZM351.618 42.16H357.738C359.445 42.16 360.765 41.76 361.698 40.96C362.632 40.16 363.098 39.0533 363.098 37.64C363.098 36.2267 362.632 35.12 361.698 34.32C360.765 33.52 359.418 33.12 357.658 33.12H351.618V42.16ZM358.058 55C359.872 55 361.285 54.5733 362.298 53.72C363.312 52.8667 363.818 51.68 363.818 50.16C363.818 48.6133 363.285 47.4 362.218 46.52C361.152 45.6133 359.725 45.16 357.938 45.16H351.618V55H358.058ZM376.15 30.12V58H372.51V30.12H376.15ZM385.993 55.04H395.753V58H382.353V30.12H385.993V55.04ZM403.259 33.08V42.4H413.419V45.4H403.259V55H414.619V58H399.619V30.08H414.619V33.08H403.259ZM447.271 51.8H435.111L432.871 58H429.031L439.111 30.28H443.311L453.351 58H449.511L447.271 51.8ZM446.231 48.84L441.191 34.76L436.151 48.84H446.231ZM476.384 38.28C476.384 40.6 475.584 42.5333 473.984 44.08C472.411 45.6 469.997 46.36 466.744 46.36H461.384V58H457.744V30.12H466.744C469.891 30.12 472.277 30.88 473.904 32.4C475.557 33.92 476.384 35.88 476.384 38.28ZM466.744 43.36C468.771 43.36 470.264 42.92 471.224 42.04C472.184 41.16 472.664 39.9067 472.664 38.28C472.664 34.84 470.691 33.12 466.744 33.12H461.384V43.36H466.744ZM499.548 38.28C499.548 40.6 498.748 42.5333 497.148 44.08C495.575 45.6 493.161 46.36 489.908 46.36H484.548V58H480.908V30.12H489.908C493.055 30.12 495.441 30.88 497.068 32.4C498.721 33.92 499.548 35.88 499.548 38.28ZM489.908 43.36C491.935 43.36 493.428 42.92 494.388 42.04C495.348 41.16 495.828 39.9067 495.828 38.28C495.828 34.84 493.855 33.12 489.908 33.12H484.548V43.36H489.908ZM512.912 58.28C511.072 58.28 509.419 57.96 507.952 57.32C506.512 56.6533 505.379 55.7467 504.552 54.6C503.726 53.4267 503.299 52.08 503.272 50.56H507.152C507.286 51.8667 507.819 52.9733 508.752 53.88C509.712 54.76 511.099 55.2 512.912 55.2C514.646 55.2 516.006 54.7733 516.992 53.92C518.006 53.04 518.512 51.92 518.512 50.56C518.512 49.4933 518.219 48.6267 517.632 47.96C517.046 47.2933 516.312 46.7867 515.432 46.44C514.552 46.0933 513.366 45.72 511.872 45.32C510.032 44.84 508.552 44.36 507.432 43.88C506.339 43.4 505.392 42.6533 504.592 41.64C503.819 40.6 503.432 39.2133 503.432 37.48C503.432 35.96 503.819 34.6133 504.592 33.44C505.366 32.2667 506.446 31.36 507.832 30.72C509.246 30.08 510.859 29.76 512.672 29.76C515.286 29.76 517.419 30.4133 519.072 31.72C520.752 33.0267 521.699 34.76 521.912 36.92H517.912C517.779 35.8533 517.219 34.92 516.232 34.12C515.246 33.2933 513.939 32.88 512.312 32.88C510.792 32.88 509.552 33.28 508.592 34.08C507.632 34.8533 507.152 35.9467 507.152 37.36C507.152 38.3733 507.432 39.2 507.992 39.84C508.579 40.48 509.286 40.9733 510.112 41.32C510.966 41.64 512.152 42.0133 513.672 42.44C515.512 42.9467 516.992 43.4533 518.112 43.96C519.232 44.44 520.192 45.2 520.992 46.24C521.792 47.2533 522.192 48.64 522.192 50.4C522.192 51.76 521.832 53.04 521.112 54.24C520.392 55.44 519.326 56.4133 517.912 57.16C516.499 57.9067 514.832 58.28 512.912 58.28Z" fill="white"/>
<path d="M562.5 26.5L567.252 39.2482L580 44L567.252 48.7518L562.5 61.5L557.748 48.7518L545 44L557.748 39.2482L562.5 26.5Z" fill="#0F63F6"/>
<path d="M618.84 30.12V33.08H606.72V42.48H616.56V45.44H606.72V58H603.08V30.12H618.84ZM637.916 58L631.276 46.6H626.876V58H623.236V30.12H632.236C634.343 30.12 636.116 30.48 637.556 31.2C639.023 31.92 640.116 32.8933 640.836 34.12C641.556 35.3467 641.916 36.7467 641.916 38.32C641.916 40.24 641.356 41.9333 640.236 43.4C639.143 44.8667 637.49 45.84 635.276 46.32L642.276 58H637.916ZM626.876 43.68H632.236C634.21 43.68 635.69 43.2 636.676 42.24C637.663 41.2533 638.156 39.9467 638.156 38.32C638.156 36.6667 637.663 35.3867 636.676 34.48C635.716 33.5733 634.236 33.12 632.236 33.12H626.876V43.68ZM660.212 58.28C657.626 58.28 655.266 57.68 653.132 56.48C650.999 55.2533 649.306 53.56 648.052 51.4C646.826 49.2133 646.212 46.76 646.212 44.04C646.212 41.32 646.826 38.88 648.052 36.72C649.306 34.5333 650.999 32.84 653.132 31.64C655.266 30.4133 657.626 29.8 660.212 29.8C662.826 29.8 665.199 30.4133 667.332 31.64C669.466 32.84 671.146 34.52 672.372 36.68C673.599 38.84 674.212 41.2933 674.212 44.04C674.212 46.7867 673.599 49.24 672.372 51.4C671.146 53.56 669.466 55.2533 667.332 56.48C665.199 57.68 662.826 58.28 660.212 58.28ZM660.212 55.12C662.159 55.12 663.906 54.6667 665.452 53.76C667.026 52.8533 668.252 51.56 669.132 49.88C670.039 48.2 670.492 46.2533 670.492 44.04C670.492 41.8 670.039 39.8533 669.132 38.2C668.252 36.52 667.039 35.2267 665.492 34.32C663.946 33.4133 662.186 32.96 660.212 32.96C658.239 32.96 656.479 33.4133 654.932 34.32C653.386 35.2267 652.159 36.52 651.252 38.2C650.372 39.8533 649.932 41.8 649.932 44.04C649.932 46.2533 650.372 48.2 651.252 49.88C652.159 51.56 653.386 52.8533 654.932 53.76C656.506 54.6667 658.266 55.12 660.212 55.12ZM700.938 58H697.298L682.658 35.8V58H679.018V30.08H682.658L697.298 52.24V30.08H700.938V58ZM724.303 30.12V33.08H716.703V58H713.063V33.08H705.423V30.12H724.303ZM732.423 33.08V42.4H742.583V45.4H732.423V55H743.783V58H728.783V30.08H743.783V33.08H732.423ZM771.211 58H767.571L752.931 35.8V58H749.291V30.08H752.931L767.571 52.24V30.08H771.211V58ZM786.096 30.12C789.136 30.12 791.763 30.6933 793.976 31.84C796.216 32.96 797.923 34.5733 799.096 36.68C800.296 38.7867 800.896 41.2667 800.896 44.12C800.896 46.9733 800.296 49.4533 799.096 51.56C797.923 53.64 796.216 55.24 793.976 56.36C791.763 57.4533 789.136 58 786.096 58H777.416V30.12H786.096ZM786.096 55C789.696 55 792.443 54.0533 794.336 52.16C796.229 50.24 797.176 47.56 797.176 44.12C797.176 40.6533 796.216 37.9467 794.296 36C792.403 34.0533 789.669 33.08 786.096 33.08H781.056V55H786.096ZM825.041 30.12C828.081 30.12 830.708 30.6933 832.921 31.84C835.161 32.96 836.868 34.5733 838.041 36.68C839.241 38.7867 839.841 41.2667 839.841 44.12C839.841 46.9733 839.241 49.4533 838.041 51.56C836.868 53.64 835.161 55.24 832.921 56.36C830.708 57.4533 828.081 58 825.041 58H816.361V30.12H825.041ZM825.041 55C828.641 55 831.388 54.0533 833.281 52.16C835.175 50.24 836.121 47.56 836.121 44.12C836.121 40.6533 835.161 37.9467 833.241 36C831.348 34.0533 828.615 33.08 825.041 33.08H820.001V55H825.041ZM848.283 33.08V42.4H858.443V45.4H848.283V55H859.643V58H844.643V30.08H859.643V33.08H848.283ZM888.19 30.12L877.67 58H873.47L862.95 30.12H866.83L875.59 54.16L884.35 30.12H888.19ZM895.822 33.08V42.4H905.982V45.4H895.822V55H907.182V58H892.182V30.08H907.182V33.08H895.822ZM916.329 55.04H926.089V58H912.689V30.12H916.329V55.04ZM942.595 58.28C940.008 58.28 937.648 57.68 935.515 56.48C933.382 55.2533 931.688 53.56 930.435 51.4C929.208 49.2133 928.595 46.76 928.595 44.04C928.595 41.32 929.208 38.88 930.435 36.72C931.688 34.5333 933.382 32.84 935.515 31.64C937.648 30.4133 940.008 29.8 942.595 29.8C945.208 29.8 947.582 30.4133 949.715 31.64C951.848 32.84 953.528 34.52 954.755 36.68C955.982 38.84 956.595 41.2933 956.595 44.04C956.595 46.7867 955.982 49.24 954.755 51.4C953.528 53.56 951.848 55.2533 949.715 56.48C947.582 57.68 945.208 58.28 942.595 58.28ZM942.595 55.12C944.542 55.12 946.288 54.6667 947.835 53.76C949.408 52.8533 950.635 51.56 951.515 49.88C952.422 48.2 952.875 46.2533 952.875 44.04C952.875 41.8 952.422 39.8533 951.515 38.2C950.635 36.52 949.422 35.2267 947.875 34.32C946.328 33.4133 944.568 32.96 942.595 32.96C940.622 32.96 938.862 33.4133 937.315 34.32C935.768 35.2267 934.542 36.52 933.635 38.2C932.755 39.8533 932.315 41.8 932.315 44.04C932.315 46.2533 932.755 48.2 933.635 49.88C934.542 51.56 935.768 52.8533 937.315 53.76C938.888 54.6667 940.648 55.12 942.595 55.12ZM980.04 38.28C980.04 40.6 979.24 42.5333 977.64 44.08C976.067 45.6 973.654 46.36 970.4 46.36H965.04V58H961.4V30.12H970.4C973.547 30.12 975.934 30.88 977.56 32.4C979.214 33.92 980.04 35.88 980.04 38.28ZM970.4 43.36C972.427 43.36 973.92 42.92 974.88 42.04C975.84 41.16 976.32 39.9067 976.32 38.28C976.32 34.84 974.347 33.12 970.4 33.12H965.04V43.36H970.4ZM1012.84 30.32V58H1009.2V37.36L1000 58H997.444L988.204 37.32V58H984.564V30.32H988.484L998.724 53.2L1008.96 30.32H1012.84ZM1022.66 33.08V42.4H1032.82V45.4H1022.66V55H1034.02V58H1019.02V30.08H1034.02V33.08H1022.66ZM1061.45 58H1057.81L1043.17 35.8V58H1039.53V30.08H1043.17L1057.81 52.24V30.08H1061.45V58ZM1084.81 30.12V33.08H1077.21V58H1073.57V33.08H1065.93V30.12H1084.81Z" fill="white"/>
<path d="M1124.5 26.5L1129.25 39.2482L1142 44L1129.25 48.7518L1124.5 61.5L1119.75 48.7518L1107 44L1119.75 39.2482L1124.5 26.5Z" fill="#0F63F6"/>
<path d="M1168.64 30.12V47.76C1168.64 50.24 1169.24 52.08 1170.44 53.28C1171.67 54.48 1173.36 55.08 1175.52 55.08C1177.65 55.08 1179.32 54.48 1180.52 53.28C1181.75 52.08 1182.36 50.24 1182.36 47.76V30.12H1186V47.72C1186 50.04 1185.53 52 1184.6 53.6C1183.67 55.1733 1182.4 56.3467 1180.8 57.12C1179.23 57.8933 1177.45 58.28 1175.48 58.28C1173.51 58.28 1171.72 57.8933 1170.12 57.12C1168.55 56.3467 1167.29 55.1733 1166.36 53.6C1165.45 52 1165 50.04 1165 47.72V30.12H1168.64ZM1195.71 30.12V58H1192.07V30.12H1195.71ZM1215.52 20.32L1204.56 64.8H1200.96L1211.88 20.32H1215.52ZM1224.5 30.12V47.76C1224.5 50.24 1225.1 52.08 1226.3 53.28C1227.53 54.48 1229.22 55.08 1231.38 55.08C1233.51 55.08 1235.18 54.48 1236.38 53.28C1237.61 52.08 1238.22 50.24 1238.22 47.76V30.12H1241.86V47.72C1241.86 50.04 1241.39 52 1240.46 53.6C1239.53 55.1733 1238.26 56.3467 1236.66 57.12C1235.09 57.8933 1233.31 58.28 1231.34 58.28C1229.37 58.28 1227.58 57.8933 1225.98 57.12C1224.41 56.3467 1223.15 55.1733 1222.22 53.6C1221.31 52 1220.86 50.04 1220.86 47.72V30.12H1224.5ZM1259.33 44.08L1267.89 58H1263.77L1257.09 47.12L1250.73 58H1246.69L1255.21 44.08L1246.65 30.12H1250.73L1257.45 41.04L1263.85 30.12H1267.93L1259.33 44.08ZM1292.12 30.12C1295.16 30.12 1297.79 30.6933 1300 31.84C1302.24 32.96 1303.95 34.5733 1305.12 36.68C1306.32 38.7867 1306.92 41.2667 1306.92 44.12C1306.92 46.9733 1306.32 49.4533 1305.12 51.56C1303.95 53.64 1302.24 55.24 1300 56.36C1297.79 57.4533 1295.16 58 1292.12 58H1283.44V30.12H1292.12ZM1292.12 55C1295.72 55 1298.47 54.0533 1300.36 52.16C1302.25 50.24 1303.2 47.56 1303.2 44.12C1303.2 40.6533 1302.24 37.9467 1300.32 36C1298.43 34.0533 1295.69 33.08 1292.12 33.08H1287.08V55H1292.12ZM1315.36 33.08V42.4H1325.52V45.4H1315.36V55H1326.72V58H1311.72V30.08H1326.72V33.08H1315.36ZM1341.07 58.28C1339.23 58.28 1337.58 57.96 1336.11 57.32C1334.67 56.6533 1333.54 55.7467 1332.71 54.6C1331.88 53.4267 1331.46 52.08 1331.43 50.56H1335.31C1335.44 51.8667 1335.98 52.9733 1336.91 53.88C1337.87 54.76 1339.26 55.2 1341.07 55.2C1342.8 55.2 1344.16 54.7733 1345.15 53.92C1346.16 53.04 1346.67 51.92 1346.67 50.56C1346.67 49.4933 1346.38 48.6267 1345.79 47.96C1345.2 47.2933 1344.47 46.7867 1343.59 46.44C1342.71 46.0933 1341.52 45.72 1340.03 45.32C1338.19 44.84 1336.71 44.36 1335.59 43.88C1334.5 43.4 1333.55 42.6533 1332.75 41.64C1331.98 40.6 1331.59 39.2133 1331.59 37.48C1331.59 35.96 1331.98 34.6133 1332.75 33.44C1333.52 32.2667 1334.6 31.36 1335.99 30.72C1337.4 30.08 1339.02 29.76 1340.83 29.76C1343.44 29.76 1345.58 30.4133 1347.23 31.72C1348.91 33.0267 1349.86 34.76 1350.07 36.92H1346.07C1345.94 35.8533 1345.38 34.92 1344.39 34.12C1343.4 33.2933 1342.1 32.88 1340.47 32.88C1338.95 32.88 1337.71 33.28 1336.75 34.08C1335.79 34.8533 1335.31 35.9467 1335.31 37.36C1335.31 38.3733 1335.59 39.2 1336.15 39.84C1336.74 40.48 1337.44 40.9733 1338.27 41.32C1339.12 41.64 1340.31 42.0133 1341.83 42.44C1343.67 42.9467 1345.15 43.4533 1346.27 43.96C1347.39 44.44 1348.35 45.2 1349.15 46.24C1349.95 47.2533 1350.35 48.64 1350.35 50.4C1350.35 51.76 1349.99 53.04 1349.27 54.24C1348.55 55.44 1347.48 56.4133 1346.07 57.16C1344.66 57.9067 1342.99 58.28 1341.07 58.28ZM1359.35 30.12V58H1355.71V30.12H1359.35ZM1386.67 38.2C1385.9 36.5733 1384.78 35.32 1383.31 34.44C1381.84 33.5333 1380.14 33.08 1378.19 33.08C1376.24 33.08 1374.48 33.5333 1372.91 34.44C1371.36 35.32 1370.14 36.6 1369.23 38.28C1368.35 39.9333 1367.91 41.8533 1367.91 44.04C1367.91 46.2267 1368.35 48.1467 1369.23 49.8C1370.14 51.4533 1371.36 52.7333 1372.91 53.64C1374.48 54.52 1376.24 54.96 1378.19 54.96C1380.91 54.96 1383.15 54.1467 1384.91 52.52C1386.67 50.8933 1387.7 48.6933 1387.99 45.92H1376.87V42.96H1391.87V45.76C1391.66 48.0533 1390.94 50.16 1389.71 52.08C1388.48 53.9733 1386.87 55.48 1384.87 56.6C1382.87 57.6933 1380.64 58.24 1378.19 58.24C1375.6 58.24 1373.24 57.64 1371.11 56.44C1368.98 55.2133 1367.28 53.52 1366.03 51.36C1364.8 49.2 1364.19 46.76 1364.19 44.04C1364.19 41.32 1364.8 38.88 1366.03 36.72C1367.28 34.5333 1368.98 32.84 1371.11 31.64C1373.24 30.4133 1375.6 29.8 1378.19 29.8C1381.15 29.8 1383.76 30.5333 1386.03 32C1388.32 33.4667 1389.99 35.5333 1391.03 38.2H1386.67ZM1418.6 58H1414.96L1400.32 35.8V58H1396.68V30.08H1400.32L1414.96 52.24V30.08H1418.6V58Z" fill="white"/>
<path d="M1459.5 26.5L1464.25 39.2482L1477 44L1464.25 48.7518L1459.5 61.5L1454.75 48.7518L1442 44L1454.75 39.2482L1459.5 26.5Z" fill="#0F63F6"/>
<path d="M1514.04 43.64C1515.05 43.8 1515.97 44.2133 1516.8 44.88C1517.65 45.5467 1518.32 46.3733 1518.8 47.36C1519.31 48.3467 1519.56 49.4 1519.56 50.52C1519.56 51.9333 1519.2 53.2133 1518.48 54.36C1517.76 55.48 1516.71 56.3733 1515.32 57.04C1513.96 57.68 1512.35 58 1510.48 58H1500.08V30.12H1510.08C1511.97 30.12 1513.59 30.44 1514.92 31.08C1516.25 31.6933 1517.25 32.5333 1517.92 33.6C1518.59 34.6667 1518.92 35.8667 1518.92 37.2C1518.92 38.8533 1518.47 40.2267 1517.56 41.32C1516.68 42.3867 1515.51 43.16 1514.04 43.64ZM1503.72 42.16H1509.84C1511.55 42.16 1512.87 41.76 1513.8 40.96C1514.73 40.16 1515.2 39.0533 1515.2 37.64C1515.2 36.2267 1514.73 35.12 1513.8 34.32C1512.87 33.52 1511.52 33.12 1509.76 33.12H1503.72V42.16ZM1510.16 55C1511.97 55 1513.39 54.5733 1514.4 53.72C1515.41 52.8667 1515.92 51.68 1515.92 50.16C1515.92 48.6133 1515.39 47.4 1514.32 46.52C1513.25 45.6133 1511.83 45.16 1510.04 45.16H1503.72V55H1510.16ZM1539.29 58L1532.65 46.6H1528.25V58H1524.61V30.12H1533.61C1535.72 30.12 1537.49 30.48 1538.93 31.2C1540.4 31.92 1541.49 32.8933 1542.21 34.12C1542.93 35.3467 1543.29 36.7467 1543.29 38.32C1543.29 40.24 1542.73 41.9333 1541.61 43.4C1540.52 44.8667 1538.86 45.84 1536.65 46.32L1543.65 58H1539.29ZM1528.25 43.68H1533.61C1535.58 43.68 1537.06 43.2 1538.05 42.24C1539.04 41.2533 1539.53 39.9467 1539.53 38.32C1539.53 36.6667 1539.04 35.3867 1538.05 34.48C1537.09 33.5733 1535.61 33.12 1533.61 33.12H1528.25V43.68ZM1565.43 51.8H1553.27L1551.03 58H1547.19L1557.27 30.28H1561.47L1571.51 58H1567.67L1565.43 51.8ZM1564.39 48.84L1559.35 34.76L1554.31 48.84H1564.39ZM1597.82 58H1594.18L1579.54 35.8V58H1575.9V30.08H1579.54L1594.18 52.24V30.08H1597.82V58ZM1612.71 30.12C1615.75 30.12 1618.37 30.6933 1620.59 31.84C1622.83 32.96 1624.53 34.5733 1625.71 36.68C1626.91 38.7867 1627.51 41.2667 1627.51 44.12C1627.51 46.9733 1626.91 49.4533 1625.71 51.56C1624.53 53.64 1622.83 55.24 1620.59 56.36C1618.37 57.4533 1615.75 58 1612.71 58H1604.03V30.12H1612.71ZM1612.71 55C1616.31 55 1619.05 54.0533 1620.95 52.16C1622.84 50.24 1623.79 47.56 1623.79 44.12C1623.79 40.6533 1622.83 37.9467 1620.91 36C1619.01 34.0533 1616.28 33.08 1612.71 33.08H1607.67V55H1612.71ZM1664.37 58L1660.73 54.32C1659.37 55.7333 1657.92 56.7867 1656.37 57.48C1654.82 58.1467 1653.08 58.48 1651.13 58.48C1649.21 58.48 1647.5 58.1333 1646.01 57.44C1644.54 56.7467 1643.4 55.76 1642.57 54.48C1641.77 53.2 1641.37 51.7067 1641.37 50C1641.37 48.0533 1641.92 46.3467 1643.01 44.88C1644.13 43.3867 1645.77 42.2133 1647.93 41.36C1647.08 40.3467 1646.46 39.4133 1646.09 38.56C1645.72 37.7067 1645.53 36.7733 1645.53 35.76C1645.53 34.5867 1645.82 33.5333 1646.41 32.6C1647.02 31.64 1647.89 30.8933 1649.01 30.36C1650.13 29.8267 1651.42 29.56 1652.89 29.56C1654.33 29.56 1655.58 29.84 1656.65 30.4C1657.72 30.96 1658.52 31.7467 1659.05 32.76C1659.58 33.7467 1659.82 34.8533 1659.77 36.08H1656.13C1656.16 34.9867 1655.85 34.1333 1655.21 33.52C1654.57 32.88 1653.74 32.56 1652.73 32.56C1651.66 32.56 1650.8 32.8667 1650.13 33.48C1649.49 34.0667 1649.17 34.8267 1649.17 35.76C1649.17 36.56 1649.38 37.3333 1649.81 38.08C1650.26 38.8267 1651.01 39.7467 1652.05 40.84L1660.37 49.2L1661.09 48.08L1663.81 43.52H1667.73L1664.45 49.2C1664 50 1663.46 50.84 1662.85 51.72L1669.13 58H1664.37ZM1651.13 55.36C1652.57 55.36 1653.86 55.08 1655.01 54.52C1656.18 53.96 1657.29 53.0933 1658.33 51.92L1650.13 43.68C1646.72 44.9867 1645.01 47.0533 1645.01 49.88C1645.01 51.4533 1645.57 52.76 1646.69 53.8C1647.84 54.84 1649.32 55.36 1651.13 55.36ZM1704.33 38.2C1703.55 36.5733 1702.43 35.32 1700.97 34.44C1699.5 33.5333 1697.79 33.08 1695.85 33.08C1693.9 33.08 1692.14 33.5333 1690.57 34.44C1689.02 35.32 1687.79 36.6 1686.89 38.28C1686.01 39.9333 1685.57 41.8533 1685.57 44.04C1685.57 46.2267 1686.01 48.1467 1686.89 49.8C1687.79 51.4533 1689.02 52.7333 1690.57 53.64C1692.14 54.52 1693.9 54.96 1695.85 54.96C1698.57 54.96 1700.81 54.1467 1702.57 52.52C1704.33 50.8933 1705.35 48.6933 1705.65 45.92H1694.53V42.96H1709.53V45.76C1709.31 48.0533 1708.59 50.16 1707.37 52.08C1706.14 53.9733 1704.53 55.48 1702.53 56.6C1700.53 57.6933 1698.3 58.24 1695.85 58.24C1693.26 58.24 1690.9 57.64 1688.77 56.44C1686.63 55.2133 1684.94 53.52 1683.69 51.36C1682.46 49.2 1681.85 46.76 1681.85 44.04C1681.85 41.32 1682.46 38.88 1683.69 36.72C1684.94 34.5333 1686.63 32.84 1688.77 31.64C1690.9 30.4133 1693.26 29.8 1695.85 29.8C1698.81 29.8 1701.42 30.5333 1703.69 32C1705.98 33.4667 1707.65 35.5333 1708.69 38.2H1704.33ZM1729.02 58L1722.38 46.6H1717.98V58H1714.34V30.12H1723.34C1725.44 30.12 1727.22 30.48 1728.66 31.2C1730.12 31.92 1731.22 32.8933 1731.94 34.12C1732.66 35.3467 1733.02 36.7467 1733.02 38.32C1733.02 40.24 1732.46 41.9333 1731.34 43.4C1730.24 44.8667 1728.59 45.84 1726.38 46.32L1733.38 58H1729.02ZM1717.98 43.68H1723.34C1725.31 43.68 1726.79 43.2 1727.78 42.24C1728.76 41.2533 1729.26 39.9467 1729.26 38.32C1729.26 36.6667 1728.76 35.3867 1727.78 34.48C1726.82 33.5733 1725.34 33.12 1723.34 33.12H1717.98V43.68ZM1755.15 51.8H1742.99L1740.75 58H1736.91L1746.99 30.28H1751.19L1761.23 58H1757.39L1755.15 51.8ZM1754.11 48.84L1749.07 34.76L1744.03 48.84H1754.11ZM1784.27 38.28C1784.27 40.6 1783.47 42.5333 1781.87 44.08C1780.29 45.6 1777.88 46.36 1774.63 46.36H1769.27V58H1765.63V30.12H1774.63C1777.77 30.12 1780.16 30.88 1781.79 32.4C1783.44 33.92 1784.27 35.88 1784.27 38.28ZM1774.63 43.36C1776.65 43.36 1778.15 42.92 1779.11 42.04C1780.07 41.16 1780.55 39.9067 1780.55 38.28C1780.55 34.84 1778.57 33.12 1774.63 33.12H1769.27V43.36H1774.63ZM1810.27 30.12V58H1806.63V45.36H1792.43V58H1788.79V30.12H1792.43V42.36H1806.63V30.12H1810.27ZM1820.13 30.12V58H1816.49V30.12H1820.13ZM1824.97 44.04C1824.97 41.32 1825.58 38.88 1826.81 36.72C1828.04 34.5333 1829.7 32.8267 1831.81 31.6C1833.94 30.3733 1836.3 29.76 1838.89 29.76C1841.93 29.76 1844.58 30.4933 1846.85 31.96C1849.12 33.4267 1850.77 35.5067 1851.81 38.2H1847.45C1846.68 36.52 1845.56 35.2267 1844.09 34.32C1842.65 33.4133 1840.92 32.96 1838.89 32.96C1836.94 32.96 1835.2 33.4133 1833.65 34.32C1832.1 35.2267 1830.89 36.52 1830.01 38.2C1829.13 39.8533 1828.69 41.8 1828.69 44.04C1828.69 46.2533 1829.13 48.2 1830.01 49.88C1830.89 51.5333 1832.1 52.8133 1833.65 53.72C1835.2 54.6267 1836.94 55.08 1838.89 55.08C1840.92 55.08 1842.65 54.64 1844.09 53.76C1845.56 52.8533 1846.68 51.56 1847.45 49.88H1851.81C1850.77 52.5467 1849.12 54.6133 1846.85 56.08C1844.58 57.52 1841.93 58.24 1838.89 58.24C1836.3 58.24 1833.94 57.64 1831.81 56.44C1829.7 55.2133 1828.04 53.52 1826.81 51.36C1825.58 49.2 1824.97 46.76 1824.97 44.04ZM1876.57 30.12C1879.61 30.12 1882.24 30.6933 1884.45 31.84C1886.69 32.96 1888.4 34.5733 1889.57 36.68C1890.77 38.7867 1891.37 41.2667 1891.37 44.12C1891.37 46.9733 1890.77 49.4533 1889.57 51.56C1888.4 53.64 1886.69 55.24 1884.45 56.36C1882.24 57.4533 1879.61 58 1876.57 58H1867.89V30.12H1876.57ZM1876.57 55C1880.17 55 1882.92 54.0533 1884.81 52.16C1886.71 50.24 1887.65 47.56 1887.65 44.12C1887.65 40.6533 1886.69 37.9467 1884.77 36C1882.88 34.0533 1880.15 33.08 1876.57 33.08H1871.53V55H1876.57ZM1899.81 33.08V42.4H1909.97V45.4H1899.81V55H1911.17V58H1896.17V30.08H1911.17V33.08H1899.81ZM1925.52 58.28C1923.68 58.28 1922.03 57.96 1920.56 57.32C1919.12 56.6533 1917.99 55.7467 1917.16 54.6C1916.33 53.4267 1915.91 52.08 1915.88 50.56H1919.76C1919.89 51.8667 1920.43 52.9733 1921.36 53.88C1922.32 54.76 1923.71 55.2 1925.52 55.2C1927.25 55.2 1928.61 54.7733 1929.6 53.92C1930.61 53.04 1931.12 51.92 1931.12 50.56C1931.12 49.4933 1930.83 48.6267 1930.24 47.96C1929.65 47.2933 1928.92 46.7867 1928.04 46.44C1927.16 46.0933 1925.97 45.72 1924.48 45.32C1922.64 44.84 1921.16 44.36 1920.04 43.88C1918.95 43.4 1918 42.6533 1917.2 41.64C1916.43 40.6 1916.04 39.2133 1916.04 37.48C1916.04 35.96 1916.43 34.6133 1917.2 33.44C1917.97 32.2667 1919.05 31.36 1920.44 30.72C1921.85 30.08 1923.47 29.76 1925.28 29.76C1927.89 29.76 1930.03 30.4133 1931.68 31.72C1933.36 33.0267 1934.31 34.76 1934.52 36.92H1930.52C1930.39 35.8533 1929.83 34.92 1928.84 34.12C1927.85 33.2933 1926.55 32.88 1924.92 32.88C1923.4 32.88 1922.16 33.28 1921.2 34.08C1920.24 34.8533 1919.76 35.9467 1919.76 37.36C1919.76 38.3733 1920.04 39.2 1920.6 39.84C1921.19 40.48 1921.89 40.9733 1922.72 41.32C1923.57 41.64 1924.76 42.0133 1926.28 42.44C1928.12 42.9467 1929.6 43.4533 1930.72 43.96C1931.84 44.44 1932.8 45.2 1933.6 46.24C1934.4 47.2533 1934.8 48.64 1934.8 50.4C1934.8 51.76 1934.44 53.04 1933.72 54.24C1933 55.44 1931.93 56.4133 1930.52 57.16C1929.11 57.9067 1927.44 58.28 1925.52 58.28ZM1943.8 30.12V58H1940.16V30.12H1943.8ZM1971.12 38.2C1970.35 36.5733 1969.23 35.32 1967.76 34.44C1966.3 33.5333 1964.59 33.08 1962.64 33.08C1960.7 33.08 1958.94 33.5333 1957.36 34.44C1955.82 35.32 1954.59 36.6 1953.68 38.28C1952.8 39.9333 1952.36 41.8533 1952.36 44.04C1952.36 46.2267 1952.8 48.1467 1953.68 49.8C1954.59 51.4533 1955.82 52.7333 1957.36 53.64C1958.94 54.52 1960.7 54.96 1962.64 54.96C1965.36 54.96 1967.6 54.1467 1969.36 52.52C1971.12 50.8933 1972.15 48.6933 1972.44 45.92H1961.32V42.96H1976.32V45.76C1976.11 48.0533 1975.39 50.16 1974.16 52.08C1972.94 53.9733 1971.32 55.48 1969.32 56.6C1967.32 57.6933 1965.1 58.24 1962.64 58.24C1960.06 58.24 1957.7 57.64 1955.56 56.44C1953.43 55.2133 1951.74 53.52 1950.48 51.36C1949.26 49.2 1948.64 46.76 1948.64 44.04C1948.64 41.32 1949.26 38.88 1950.48 36.72C1951.74 34.5333 1953.43 32.84 1955.56 31.64C1957.7 30.4133 1960.06 29.8 1962.64 29.8C1965.6 29.8 1968.22 30.5333 1970.48 32C1972.78 33.4667 1974.44 35.5333 1975.48 38.2H1971.12ZM2003.05 58H1999.41L1984.77 35.8V58H1981.13V30.08H1984.77L1999.41 52.24V30.08H2003.05V58Z" fill="white"/>
</svg>
