<svg width="1902" height="88" viewBox="0 0 1902 88" fill="none" xmlns="http://www.w3.org/2000/svg">
<rect width="1902" height="88" fill="#0F63F6"/>
<path d="M65.744 27.544L56.048 61H51.152L43.376 34.072L35.312 61L30.464 61.048L21.104 27.544H25.76L33.056 55.912L41.12 27.544H46.016L53.696 55.816L61.04 27.544H65.744ZM74.8921 31.096V42.28H87.0841V45.88H74.8921V57.4H88.5241V61H70.5241V27.496H88.5241V31.096H74.8921ZM111.886 43.768C113.102 43.96 114.206 44.456 115.198 45.256C116.222 46.056 117.022 47.048 117.598 48.232C118.206 49.416 118.51 50.68 118.51 52.024C118.51 53.72 118.078 55.256 117.214 56.632C116.35 57.976 115.086 59.048 113.422 59.848C111.79 60.616 109.854 61 107.614 61H95.1335V27.544H107.134C109.406 27.544 111.342 27.928 112.942 28.696C114.542 29.432 115.742 30.44 116.542 31.72C117.342 33 117.742 34.44 117.742 36.04C117.742 38.024 117.198 39.672 116.109 40.984C115.054 42.264 113.646 43.192 111.886 43.768ZM99.5015 41.992H106.846C108.894 41.992 110.478 41.512 111.598 40.552C112.718 39.592 113.278 38.264 113.278 36.568C113.278 34.872 112.718 33.544 111.598 32.584C110.478 31.624 108.862 31.144 106.75 31.144H99.5015V41.992ZM107.23 57.4C109.406 57.4 111.102 56.888 112.318 55.864C113.534 54.84 114.142 53.416 114.142 51.592C114.142 49.736 113.502 48.28 112.222 47.224C110.942 46.136 109.23 45.592 107.086 45.592H99.5015V57.4H107.23ZM135.179 61.336C132.971 61.336 130.987 60.952 129.227 60.184C127.499 59.384 126.139 58.296 125.147 56.92C124.155 55.512 123.643 53.896 123.611 52.072H128.267C128.427 53.64 129.067 54.968 130.187 56.056C131.339 57.112 133.003 57.64 135.179 57.64C137.259 57.64 138.891 57.128 140.075 56.104C141.291 55.048 141.899 53.704 141.899 52.072C141.899 50.792 141.547 49.752 140.843 48.952C140.139 48.152 139.259 47.544 138.203 47.128C137.147 46.712 135.723 46.264 133.931 45.784C131.723 45.208 129.947 44.632 128.603 44.056C127.291 43.48 126.155 42.584 125.195 41.368C124.267 40.12 123.803 38.456 123.803 36.376C123.803 34.552 124.267 32.936 125.195 31.528C126.123 30.12 127.419 29.032 129.083 28.264C130.779 27.496 132.715 27.112 134.891 27.112C138.027 27.112 140.587 27.896 142.571 29.464C144.587 31.032 145.723 33.112 145.979 35.704H141.179C141.019 34.424 140.347 33.304 139.163 32.344C137.979 31.352 136.411 30.856 134.459 30.856C132.635 30.856 131.147 31.336 129.995 32.296C128.843 33.224 128.267 34.536 128.267 36.232C128.267 37.448 128.603 38.44 129.275 39.208C129.979 39.976 130.827 40.568 131.819 40.984C132.843 41.368 134.267 41.816 136.091 42.328C138.299 42.936 140.075 43.544 141.419 44.152C142.763 44.728 143.915 45.64 144.875 46.888C145.835 48.104 146.315 49.768 146.315 51.88C146.315 53.512 145.883 55.048 145.019 56.488C144.155 57.928 142.875 59.096 141.179 59.992C139.483 60.888 137.483 61.336 135.179 61.336ZM157.111 27.544V61H152.743V27.544H157.111ZM185.147 27.544V31.096H176.027V61H171.659V31.096H162.491V27.544H185.147ZM194.892 31.096V42.28H207.084V45.88H194.892V57.4H208.524V61H190.524V27.496H208.524V31.096H194.892ZM225.742 61.336C223.534 61.336 221.55 60.952 219.79 60.184C218.062 59.384 216.702 58.296 215.71 56.92C214.718 55.512 214.206 53.896 214.174 52.072H218.83C218.99 53.64 219.63 54.968 220.75 56.056C221.902 57.112 223.566 57.64 225.742 57.64C227.822 57.64 229.454 57.128 230.638 56.104C231.854 55.048 232.462 53.704 232.462 52.072C232.462 50.792 232.11 49.752 231.406 48.952C230.702 48.152 229.822 47.544 228.766 47.128C227.71 46.712 226.286 46.264 224.494 45.784C222.286 45.208 220.51 44.632 219.166 44.056C217.854 43.48 216.718 42.584 215.758 41.368C214.83 40.12 214.366 38.456 214.366 36.376C214.366 34.552 214.83 32.936 215.758 31.528C216.686 30.12 217.982 29.032 219.646 28.264C221.342 27.496 223.278 27.112 225.454 27.112C228.59 27.112 231.15 27.896 233.134 29.464C235.15 31.032 236.286 33.112 236.542 35.704H231.742C231.582 34.424 230.91 33.304 229.726 32.344C228.542 31.352 226.974 30.856 225.022 30.856C223.198 30.856 221.71 31.336 220.558 32.296C219.406 33.224 218.83 34.536 218.83 36.232C218.83 37.448 219.166 38.44 219.838 39.208C220.542 39.976 221.39 40.568 222.382 40.984C223.406 41.368 224.83 41.816 226.654 42.328C228.862 42.936 230.638 43.544 231.982 44.152C233.326 44.728 234.478 45.64 235.438 46.888C236.398 48.104 236.878 49.768 236.878 51.88C236.878 53.512 236.446 55.048 235.582 56.488C234.718 57.928 233.438 59.096 231.742 59.992C230.046 60.888 228.046 61.336 225.742 61.336Z" fill="white"/>
<path d="M280 24L285.431 38.5694L300 44L285.431 49.4306L280 64L274.569 49.4306L260 44L274.569 38.5694L280 24Z" fill="white"/>
<path d="M357.632 27.784V61H353.264V36.232L342.224 61H339.152L328.064 36.184V61H323.696V27.784H328.4L340.688 55.24L352.976 27.784H357.632ZM380.208 61.336C377.104 61.336 374.272 60.616 371.712 59.176C369.152 57.704 367.12 55.672 365.616 53.08C364.144 50.456 363.408 47.512 363.408 44.248C363.408 40.984 364.144 38.056 365.616 35.464C367.12 32.84 369.152 30.808 371.712 29.368C374.272 27.896 377.104 27.16 380.208 27.16C383.344 27.16 386.192 27.896 388.752 29.368C391.312 30.808 393.328 32.824 394.8 35.416C396.272 38.008 397.008 40.952 397.008 44.248C397.008 47.544 396.272 50.488 394.8 53.08C393.328 55.672 391.312 57.704 388.752 59.176C386.192 60.616 383.344 61.336 380.208 61.336ZM380.208 57.544C382.544 57.544 384.64 57 386.496 55.912C388.384 54.824 389.856 53.272 390.912 51.256C392 49.24 392.544 46.904 392.544 44.248C392.544 41.56 392 39.224 390.912 37.24C389.856 35.224 388.4 33.672 386.544 32.584C384.688 31.496 382.576 30.952 380.208 30.952C377.84 30.952 375.728 31.496 373.872 32.584C372.016 33.672 370.544 35.224 369.456 37.24C368.4 39.224 367.872 41.56 367.872 44.248C367.872 46.904 368.4 49.24 369.456 51.256C370.544 53.272 372.016 54.824 373.872 55.912C375.76 57 377.872 57.544 380.208 57.544ZM419.526 43.768C420.742 43.96 421.846 44.456 422.838 45.256C423.862 46.056 424.662 47.048 425.238 48.232C425.846 49.416 426.15 50.68 426.15 52.024C426.15 53.72 425.718 55.256 424.854 56.632C423.99 57.976 422.726 59.048 421.062 59.848C419.43 60.616 417.494 61 415.254 61H402.774V27.544H414.774C417.046 27.544 418.982 27.928 420.582 28.696C422.182 29.432 423.382 30.44 424.182 31.72C424.982 33 425.382 34.44 425.382 36.04C425.382 38.024 424.838 39.672 423.75 40.984C422.694 42.264 421.286 43.192 419.526 43.768ZM407.142 41.992H414.486C416.534 41.992 418.118 41.512 419.238 40.552C420.358 39.592 420.918 38.264 420.918 36.568C420.918 34.872 420.358 33.544 419.238 32.584C418.118 31.624 416.502 31.144 414.39 31.144H407.142V41.992ZM414.87 57.4C417.046 57.4 418.742 56.888 419.958 55.864C421.174 54.84 421.782 53.416 421.782 51.592C421.782 49.736 421.142 48.28 419.862 47.224C418.582 46.136 416.87 45.592 414.726 45.592H407.142V57.4H414.87ZM436.58 27.544V61H432.212V27.544H436.58ZM448.392 57.448H460.104V61H444.024V27.544H448.392V57.448ZM469.111 31.096V42.28H481.303V45.88H469.111V57.4H482.743V61H464.743V27.496H482.743V31.096H469.111ZM521.925 53.56H507.333L504.645 61H500.037L512.133 27.736H517.173L529.221 61H524.613L521.925 53.56ZM520.677 50.008L514.629 33.112L508.581 50.008H520.677ZM556.861 37.336C556.861 40.12 555.901 42.44 553.981 44.296C552.093 46.12 549.197 47.032 545.293 47.032H538.861V61H534.493V27.544H545.293C549.069 27.544 551.933 28.456 553.885 30.28C555.869 32.104 556.861 34.456 556.861 37.336ZM545.293 43.432C547.725 43.432 549.517 42.904 550.669 41.848C551.821 40.792 552.397 39.288 552.397 37.336C552.397 33.208 550.029 31.144 545.293 31.144H538.861V43.432H545.293ZM584.658 37.336C584.658 40.12 583.698 42.44 581.778 44.296C579.89 46.12 576.994 47.032 573.09 47.032H566.658V61H562.29V27.544H573.09C576.866 27.544 579.73 28.456 581.682 30.28C583.666 32.104 584.658 34.456 584.658 37.336ZM573.09 43.432C575.522 43.432 577.314 42.904 578.466 41.848C579.618 40.792 580.194 39.288 580.194 37.336C580.194 33.208 577.826 31.144 573.09 31.144H566.658V43.432H573.09Z" fill="white"/>
<path d="M627 24L632.431 38.5694L647 44L632.431 49.4306L627 64L621.569 49.4306L607 44L621.569 38.5694L627 24Z" fill="white"/>
<path d="M689.608 27.544V31.096H675.064V42.376H686.872V45.928H675.064V61H670.696V27.544H689.608ZM712.5 61L704.532 47.32H699.252V61H694.884V27.544H705.684C708.212 27.544 710.34 27.976 712.068 28.84C713.828 29.704 715.14 30.872 716.004 32.344C716.868 33.816 717.3 35.496 717.3 37.384C717.3 39.688 716.628 41.72 715.284 43.48C713.972 45.24 711.988 46.408 709.332 46.984L717.732 61H712.5ZM699.252 43.816H705.684C708.052 43.816 709.828 43.24 711.012 42.088C712.196 40.904 712.788 39.336 712.788 37.384C712.788 35.4 712.196 33.864 711.012 32.776C709.86 31.688 708.084 31.144 705.684 31.144H699.252V43.816ZM739.255 61.336C736.151 61.336 733.319 60.616 730.759 59.176C728.199 57.704 726.167 55.672 724.663 53.08C723.191 50.456 722.455 47.512 722.455 44.248C722.455 40.984 723.191 38.056 724.663 35.464C726.167 32.84 728.199 30.808 730.759 29.368C733.319 27.896 736.151 27.16 739.255 27.16C742.391 27.16 745.239 27.896 747.799 29.368C750.359 30.808 752.375 32.824 753.847 35.416C755.319 38.008 756.055 40.952 756.055 44.248C756.055 47.544 755.319 50.488 753.847 53.08C752.375 55.672 750.359 57.704 747.799 59.176C745.239 60.616 742.391 61.336 739.255 61.336ZM739.255 57.544C741.591 57.544 743.687 57 745.543 55.912C747.431 54.824 748.903 53.272 749.959 51.256C751.047 49.24 751.591 46.904 751.591 44.248C751.591 41.56 751.047 39.224 749.959 37.24C748.903 35.224 747.447 33.672 745.591 32.584C743.735 31.496 741.623 30.952 739.255 30.952C736.887 30.952 734.775 31.496 732.919 32.584C731.063 33.672 729.591 35.224 728.503 37.24C727.447 39.224 726.919 41.56 726.919 44.248C726.919 46.904 727.447 49.24 728.503 51.256C729.591 53.272 731.063 54.824 732.919 55.912C734.807 57 736.919 57.544 739.255 57.544ZM788.125 61H783.757L766.189 34.36V61H761.821V27.496H766.189L783.757 54.088V27.496H788.125V61ZM816.163 27.544V31.096H807.043V61H802.675V31.096H793.507V27.544H816.163ZM825.908 31.096V42.28H838.1V45.88H825.908V57.4H839.54V61H821.54V27.496H839.54V31.096H825.908ZM872.453 61H868.085L850.517 34.36V61H846.149V27.496H850.517L868.085 54.088V27.496H872.453V61ZM890.315 27.544C893.963 27.544 897.115 28.232 899.771 29.608C902.459 30.952 904.507 32.888 905.915 35.416C907.355 37.944 908.075 40.92 908.075 44.344C908.075 47.768 907.355 50.744 905.915 53.272C904.507 55.768 902.459 57.688 899.771 59.032C897.115 60.344 893.963 61 890.315 61H879.899V27.544H890.315ZM890.315 57.4C894.635 57.4 897.931 56.264 900.203 53.992C902.475 51.688 903.611 48.472 903.611 44.344C903.611 40.184 902.459 36.936 900.155 34.6C897.883 32.264 894.603 31.096 890.315 31.096H884.267V57.4H890.315ZM937.049 27.544C940.698 27.544 943.85 28.232 946.506 29.608C949.194 30.952 951.242 32.888 952.65 35.416C954.09 37.944 954.81 40.92 954.81 44.344C954.81 47.768 954.09 50.744 952.65 53.272C951.242 55.768 949.194 57.688 946.506 59.032C943.85 60.344 940.698 61 937.049 61H926.634V27.544H937.049ZM937.049 57.4C941.37 57.4 944.666 56.264 946.938 53.992C949.21 51.688 950.346 48.472 950.346 44.344C950.346 40.184 949.194 36.936 946.89 34.6C944.618 32.264 941.338 31.096 937.049 31.096H931.002V57.4H937.049ZM964.939 31.096V42.28H977.131V45.88H964.939V57.4H978.571V61H960.571V27.496H978.571V31.096H964.939ZM1012.83 27.544L1000.2 61H995.164L982.54 27.544H987.196L997.708 56.392L1008.22 27.544H1012.83ZM1021.99 31.096V42.28H1034.18V45.88H1021.99V57.4H1035.62V61H1017.62V27.496H1035.62V31.096H1021.99ZM1046.6 57.448H1058.31V61H1042.23V27.544H1046.6V57.448ZM1078.11 61.336C1075.01 61.336 1072.18 60.616 1069.62 59.176C1067.06 57.704 1065.03 55.672 1063.52 53.08C1062.05 50.456 1061.31 47.512 1061.31 44.248C1061.31 40.984 1062.05 38.056 1063.52 35.464C1065.03 32.84 1067.06 30.808 1069.62 29.368C1072.18 27.896 1075.01 27.16 1078.11 27.16C1081.25 27.16 1084.1 27.896 1086.66 29.368C1089.22 30.808 1091.23 32.824 1092.71 35.416C1094.18 38.008 1094.91 40.952 1094.91 44.248C1094.91 47.544 1094.18 50.488 1092.71 53.08C1091.23 55.672 1089.22 57.704 1086.66 59.176C1084.1 60.616 1081.25 61.336 1078.11 61.336ZM1078.11 57.544C1080.45 57.544 1082.55 57 1084.4 55.912C1086.29 54.824 1087.76 53.272 1088.82 51.256C1089.91 49.24 1090.45 46.904 1090.45 44.248C1090.45 41.56 1089.91 39.224 1088.82 37.24C1087.76 35.224 1086.31 33.672 1084.45 32.584C1082.59 31.496 1080.48 30.952 1078.11 30.952C1075.75 30.952 1073.63 31.496 1071.78 32.584C1069.92 33.672 1068.45 35.224 1067.36 37.24C1066.31 39.224 1065.78 41.56 1065.78 44.248C1065.78 46.904 1066.31 49.24 1067.36 51.256C1068.45 53.272 1069.92 54.824 1071.78 55.912C1073.67 57 1075.78 57.544 1078.11 57.544ZM1123.05 37.336C1123.05 40.12 1122.09 42.44 1120.17 44.296C1118.28 46.12 1115.38 47.032 1111.48 47.032H1105.05V61H1100.68V27.544H1111.48C1115.26 27.544 1118.12 28.456 1120.07 30.28C1122.06 32.104 1123.05 34.456 1123.05 37.336ZM1111.48 43.432C1113.91 43.432 1115.7 42.904 1116.86 41.848C1118.01 40.792 1118.58 39.288 1118.58 37.336C1118.58 33.208 1116.22 31.144 1111.48 31.144H1105.05V43.432H1111.48ZM1162.41 27.784V61H1158.05V36.232L1147.01 61H1143.93L1132.85 36.184V61H1128.48V27.784H1133.18L1145.47 55.24L1157.76 27.784H1162.41ZM1174.19 31.096V42.28H1186.38V45.88H1174.19V57.4H1187.82V61H1169.82V27.496H1187.82V31.096H1174.19ZM1220.73 61H1216.37L1198.8 34.36V61H1194.43V27.496H1198.8L1216.37 54.088V27.496H1220.73V61ZM1248.77 27.544V31.096H1239.65V61H1235.28V31.096H1226.12V27.544H1248.77Z" fill="white"/>
<path d="M1291 24L1296.43 38.5694L1311 44L1296.43 49.4306L1291 64L1285.57 49.4306L1271 44L1285.57 38.5694L1291 24Z" fill="white"/>
<path d="M1338.97 27.544V48.712C1338.97 51.688 1339.69 53.896 1341.13 55.336C1342.6 56.776 1344.63 57.496 1347.22 57.496C1349.78 57.496 1351.78 56.776 1353.22 55.336C1354.7 53.896 1355.43 51.688 1355.43 48.712V27.544H1359.8V48.664C1359.8 51.448 1359.24 53.8 1358.12 55.72C1357 57.608 1355.48 59.016 1353.56 59.944C1351.67 60.872 1349.54 61.336 1347.18 61.336C1344.81 61.336 1342.66 60.872 1340.74 59.944C1338.86 59.016 1337.35 57.608 1336.23 55.72C1335.14 53.8 1334.6 51.448 1334.6 48.664V27.544H1338.97ZM1371.45 27.544V61H1367.09V27.544H1371.45ZM1395.22 15.784L1382.07 69.16H1377.75L1390.85 15.784H1395.22ZM1406 27.544V48.712C1406 51.688 1406.72 53.896 1408.16 55.336C1409.63 56.776 1411.66 57.496 1414.26 57.496C1416.82 57.496 1418.82 56.776 1420.26 55.336C1421.73 53.896 1422.46 51.688 1422.46 48.712V27.544H1426.83V48.664C1426.83 51.448 1426.27 53.8 1425.15 55.72C1424.03 57.608 1422.51 59.016 1420.59 59.944C1418.7 60.872 1416.58 61.336 1414.21 61.336C1411.84 61.336 1409.7 60.872 1407.78 59.944C1405.89 59.016 1404.38 57.608 1403.26 55.72C1402.18 53.8 1401.63 51.448 1401.63 48.664V27.544H1406ZM1447.8 44.296L1458.07 61H1453.13L1445.11 47.944L1437.48 61H1432.63L1442.85 44.296L1432.58 27.544H1437.48L1445.54 40.648L1453.22 27.544H1458.12L1447.8 44.296ZM1487.14 27.544C1490.79 27.544 1493.94 28.232 1496.6 29.608C1499.29 30.952 1501.34 32.888 1502.74 35.416C1504.18 37.944 1504.9 40.92 1504.9 44.344C1504.9 47.768 1504.18 50.744 1502.74 53.272C1501.34 55.768 1499.29 57.688 1496.6 59.032C1493.94 60.344 1490.79 61 1487.14 61H1476.73V27.544H1487.14ZM1487.14 57.4C1491.46 57.4 1494.76 56.264 1497.03 53.992C1499.3 51.688 1500.44 48.472 1500.44 44.344C1500.44 40.184 1499.29 36.936 1496.98 34.6C1494.71 32.264 1491.43 31.096 1487.14 31.096H1481.1V57.4H1487.14ZM1515.03 31.096V42.28H1527.22V45.88H1515.03V57.4H1528.66V61H1510.66V27.496H1528.66V31.096H1515.03ZM1545.88 61.336C1543.67 61.336 1541.69 60.952 1539.93 60.184C1538.2 59.384 1536.84 58.296 1535.85 56.92C1534.86 55.512 1534.35 53.896 1534.31 52.072H1538.97C1539.13 53.64 1539.77 54.968 1540.89 56.056C1542.04 57.112 1543.71 57.64 1545.88 57.64C1547.96 57.64 1549.59 57.128 1550.78 56.104C1551.99 55.048 1552.6 53.704 1552.6 52.072C1552.6 50.792 1552.25 49.752 1551.55 48.952C1550.84 48.152 1549.96 47.544 1548.91 47.128C1547.85 46.712 1546.43 46.264 1544.63 45.784C1542.43 45.208 1540.65 44.632 1539.31 44.056C1537.99 43.48 1536.86 42.584 1535.9 41.368C1534.97 40.12 1534.51 38.456 1534.51 36.376C1534.51 34.552 1534.97 32.936 1535.9 31.528C1536.83 30.12 1538.12 29.032 1539.79 28.264C1541.48 27.496 1543.42 27.112 1545.59 27.112C1548.73 27.112 1551.29 27.896 1553.27 29.464C1555.29 31.032 1556.43 33.112 1556.68 35.704H1551.88C1551.72 34.424 1551.05 33.304 1549.87 32.344C1548.68 31.352 1547.11 30.856 1545.16 30.856C1543.34 30.856 1541.85 31.336 1540.7 32.296C1539.55 33.224 1538.97 34.536 1538.97 36.232C1538.97 37.448 1539.31 38.44 1539.98 39.208C1540.68 39.976 1541.53 40.568 1542.52 40.984C1543.55 41.368 1544.97 41.816 1546.79 42.328C1549 42.936 1550.78 43.544 1552.12 44.152C1553.47 44.728 1554.62 45.64 1555.58 46.888C1556.54 48.104 1557.02 49.768 1557.02 51.88C1557.02 53.512 1556.59 55.048 1555.72 56.488C1554.86 57.928 1553.58 59.096 1551.88 59.992C1550.19 60.888 1548.19 61.336 1545.88 61.336ZM1567.81 27.544V61H1563.45V27.544H1567.81ZM1600.6 37.24C1599.67 35.288 1598.33 33.784 1596.57 32.728C1594.81 31.64 1592.76 31.096 1590.43 31.096C1588.09 31.096 1585.98 31.64 1584.09 32.728C1582.23 33.784 1580.76 35.32 1579.67 37.336C1578.62 39.32 1578.09 41.624 1578.09 44.248C1578.09 46.872 1578.62 49.176 1579.67 51.16C1580.76 53.144 1582.23 54.68 1584.09 55.768C1585.98 56.824 1588.09 57.352 1590.43 57.352C1593.69 57.352 1596.38 56.376 1598.49 54.424C1600.6 52.472 1601.83 49.832 1602.19 46.504H1588.84V42.952H1606.84V46.312C1606.59 49.064 1605.72 51.592 1604.25 53.896C1602.78 56.168 1600.84 57.976 1598.44 59.32C1596.04 60.632 1593.37 61.288 1590.43 61.288C1587.32 61.288 1584.49 60.568 1581.93 59.128C1579.37 57.656 1577.34 55.624 1575.83 53.032C1574.36 50.44 1573.63 47.512 1573.63 44.248C1573.63 40.984 1574.36 38.056 1575.83 35.464C1577.34 32.84 1579.37 30.808 1581.93 29.368C1584.49 27.896 1587.32 27.16 1590.43 27.16C1593.98 27.16 1597.11 28.04 1599.83 29.8C1602.59 31.56 1604.59 34.04 1605.83 37.24H1600.6ZM1638.92 61H1634.55L1616.99 34.36V61H1612.62V27.496H1616.99L1634.55 54.088V27.496H1638.92V61Z" fill="white"/>
<path d="M1683 24L1688.43 38.5694L1703 44L1688.43 49.4306L1683 64L1677.57 49.4306L1663 44L1677.57 38.5694L1683 24Z" fill="white"/>
<path d="M1743.45 43.768C1744.66 43.96 1745.77 44.456 1746.76 45.256C1747.78 46.056 1748.58 47.048 1749.16 48.232C1749.77 49.416 1750.07 50.68 1750.07 52.024C1750.07 53.72 1749.64 55.256 1748.78 56.632C1747.91 57.976 1746.65 59.048 1744.98 59.848C1743.35 60.616 1741.42 61 1739.18 61H1726.7V27.544H1738.7C1740.97 27.544 1742.9 27.928 1744.5 28.696C1746.1 29.432 1747.3 30.44 1748.1 31.72C1748.9 33 1749.3 34.44 1749.3 36.04C1749.3 38.024 1748.76 39.672 1747.67 40.984C1746.62 42.264 1745.21 43.192 1743.45 43.768ZM1731.06 41.992H1738.41C1740.46 41.992 1742.04 41.512 1743.16 40.552C1744.28 39.592 1744.84 38.264 1744.84 36.568C1744.84 34.872 1744.28 33.544 1743.16 32.584C1742.04 31.624 1740.42 31.144 1738.31 31.144H1731.06V41.992ZM1738.79 57.4C1740.97 57.4 1742.66 56.888 1743.88 55.864C1745.1 54.84 1745.7 53.416 1745.7 51.592C1745.7 49.736 1745.06 48.28 1743.78 47.224C1742.5 46.136 1740.79 45.592 1738.65 45.592H1731.06V57.4H1738.79ZM1773.75 61L1765.78 47.32H1760.5V61H1756.13V27.544H1766.93C1769.46 27.544 1771.59 27.976 1773.32 28.84C1775.08 29.704 1776.39 30.872 1777.25 32.344C1778.12 33.816 1778.55 35.496 1778.55 37.384C1778.55 39.688 1777.88 41.72 1776.53 43.48C1775.22 45.24 1773.24 46.408 1770.58 46.984L1778.98 61H1773.75ZM1760.5 43.816H1766.93C1769.3 43.816 1771.08 43.24 1772.26 42.088C1773.45 40.904 1774.04 39.336 1774.04 37.384C1774.04 35.4 1773.45 33.864 1772.26 32.776C1771.11 31.688 1769.33 31.144 1766.93 31.144H1760.5V43.816ZM1805.11 53.56H1790.52L1787.83 61H1783.22L1795.32 27.736H1800.36L1812.41 61H1807.8L1805.11 53.56ZM1803.86 50.008L1797.82 33.112L1791.77 50.008H1803.86ZM1843.98 61H1839.62L1822.05 34.36V61H1817.68V27.496H1822.05L1839.62 54.088V27.496H1843.98V61ZM1861.85 27.544C1865.49 27.544 1868.65 28.232 1871.3 29.608C1873.99 30.952 1876.04 32.888 1877.45 35.416C1878.89 37.944 1879.61 40.92 1879.61 44.344C1879.61 47.768 1878.89 50.744 1877.45 53.272C1876.04 55.768 1873.99 57.688 1871.3 59.032C1868.65 60.344 1865.49 61 1861.85 61H1851.43V27.544H1861.85ZM1861.85 57.4C1866.17 57.4 1869.46 56.264 1871.73 53.992C1874.01 51.688 1875.14 48.472 1875.14 44.344C1875.14 40.184 1873.99 36.936 1871.69 34.6C1869.41 32.264 1866.13 31.096 1861.85 31.096H1855.8V57.4H1861.85Z" fill="white"/>
</svg>
